<svg width="360" height="665" viewBox="0 0 360 665" fill="none" xmlns="http://www.w3.org/2000/svg">
<g id="underConstruction">
<rect width="360" height="665" fill="#96CADB"/>
<g id="coding" clip-path="url(#clip0_14_105)">
<rect width="283" height="193" transform="translate(38 189)" fill="#96CADB"/>
<path id="Vector" d="M276.901 339.113V342.228C276.9 342.476 276.82 342.713 276.679 342.888C276.538 343.063 276.347 343.162 276.147 343.163H274.891C274.858 343.163 274.826 343.171 274.795 343.187C274.765 343.202 274.737 343.225 274.714 343.254C274.69 343.283 274.672 343.318 274.659 343.355C274.647 343.393 274.64 343.434 274.64 343.475V369.026C274.639 369.273 274.56 369.51 274.418 369.685C274.277 369.86 274.086 369.959 273.887 369.96H258.566C258.366 369.96 258.174 369.862 258.033 369.686C257.892 369.511 257.812 369.273 257.812 369.026V343.475C257.812 343.392 257.786 343.313 257.739 343.255C257.691 343.196 257.628 343.164 257.561 343.163H256.054C255.854 343.163 255.663 343.065 255.522 342.889C255.38 342.714 255.301 342.476 255.301 342.228V339.113C255.301 338.99 255.32 338.868 255.358 338.755C255.396 338.641 255.451 338.538 255.521 338.451C255.591 338.364 255.674 338.295 255.766 338.249C255.857 338.202 255.955 338.178 256.054 338.178H276.147C276.347 338.178 276.538 338.277 276.679 338.452C276.821 338.628 276.9 338.865 276.901 339.113Z" fill="#39535C"/>
<path id="Vector_2" d="M274.663 343.818H257.835V344.752H274.663V343.818Z" fill="#E6E6E6"/>
<path id="Vector_3" d="M274.64 357.573C269.009 360.464 263.317 360.496 257.561 357.573V350.987C263.102 348.679 269.099 348.679 274.64 350.987V357.573Z" fill="#F2F2F2"/>
<path id="Ellipse 276" d="M180.317 256.88C192.888 256.88 203.078 244.238 203.078 228.643C203.078 213.048 192.888 200.406 180.317 200.406C167.747 200.406 157.556 213.048 157.556 228.643C157.556 244.238 167.747 256.88 180.317 256.88Z" fill="#C58F8F"/>
<path id="Path 1461" d="M201.576 204.283C198.173 197.427 192.847 192.376 186.621 190.101L183.827 192.63V189.346C182.332 189.062 180.819 188.952 179.308 189.019L176.897 191.725V189.244C173.327 189.794 169.889 191.256 166.797 193.537C163.706 195.818 161.029 198.869 158.936 202.498C153.701 211.861 152.817 224.887 157.966 234.325C159.38 228.936 161.095 223.879 162.509 218.491C163.62 218.679 164.746 218.685 165.858 218.511L167.578 213.533L168.059 218.3C173.389 217.724 181.295 216.459 186.349 215.3L185.857 211.642L188.797 214.682C190.345 214.24 191.264 213.838 191.189 213.532C194.947 221.049 199.546 225.85 203.304 233.366C204.732 222.767 206.374 213.954 201.576 204.283Z" fill="#2F2E41"/>
<path id="Path 1421" d="M126.777 326.219C126.613 327.69 126.596 329.181 126.728 330.658L127.905 351.641C128.016 353.619 128.125 355.592 128.274 357.564C128.557 361.393 128.979 365.191 129.503 368.984C129.515 369.522 129.698 370.033 130.013 370.404C130.328 370.774 130.749 370.975 131.183 370.961C136.368 372.322 141.724 372.268 147.015 371.897C155.089 371.338 175.745 370.28 177.007 368.247C178.269 366.213 177.534 362.923 175.888 361.279C174.243 359.634 146.984 355.625 146.984 355.625C147.25 353.006 148.054 350.54 148.816 348.054C150.185 343.645 151.464 339.091 151.488 334.367C151.513 329.644 150.078 324.677 146.959 321.971C144.394 319.75 141.09 319.338 137.964 319.429C135.689 319.51 131.759 318.834 129.681 319.938C128.037 320.836 127.084 324.222 126.777 326.219Z" fill="#C58F8F"/>
<path id="Path 1421_2" d="M229.319 319.938C227.241 318.834 223.311 319.51 221.036 319.429C217.91 319.338 214.606 319.75 212.041 321.971C208.922 324.677 207.487 329.644 207.512 334.367C207.536 339.091 208.815 343.645 210.184 348.054C210.946 350.54 211.75 353.006 212.016 355.625C212.016 355.625 184.757 359.634 183.112 361.279C181.466 362.923 180.731 366.213 181.993 368.247C183.255 370.28 222.632 372.322 227.817 370.961C228.251 370.975 228.672 370.774 228.987 370.404C229.302 370.033 229.485 369.522 229.497 368.984C230.021 365.191 230.443 361.393 230.726 357.565C230.875 355.592 230.984 353.619 231.095 351.641L232.272 330.658C232.404 329.181 232.387 327.69 232.223 326.219C231.916 324.222 230.963 320.836 229.319 319.938Z" fill="#C58F8F"/>
<g id="T-shirt">
<path id="Vector_4" d="M229.27 301.256C228.487 295.414 227.68 289.46 225.491 284.198C224.053 280.751 221.77 277.466 218.692 276.785C218.086 276.718 217.49 276.547 216.922 276.276C216.02 275.737 203.901 267.155 201.975 265.66C200.321 264.377 197.71 262.001 196.394 262.001C195.069 261.964 189.991 263.431 170.171 261.509C170.171 261.509 164.726 264.171 160.513 267.4C160.449 267.347 139.941 281.01 139.171 280.974C137.712 280.897 136.355 282.056 135.519 283.516C134.683 284.975 134.29 286.782 133.88 288.529C138.359 300.904 142.457 313.295 146.937 325.67C147.147 326.136 147.258 326.661 147.261 327.195C147.171 327.749 146.98 328.27 146.704 328.719C144.507 333.097 144.577 338.603 144.817 343.748C145.057 348.894 145.354 354.329 143.5 358.941C142.996 360.207 142.341 361.366 141.861 362.632C140.738 365.5 140.332 374.672 140.988 377.753L223.161 380.674C221.394 374.648 229.27 301.256 229.27 301.256Z" fill="#39535C"/>
<path id="Path 1430" d="M133.643 288.906C133.244 289.424 132.934 290.039 132.733 290.711C129.42 299.973 127.464 309.893 126.955 320.007C126.963 320.5 126.872 320.988 126.688 321.425C126.507 321.716 126.305 321.987 126.086 322.234C125.894 322.515 125.749 322.841 125.659 323.192C125.569 323.544 125.536 323.914 125.561 324.281C125.586 324.648 125.669 325.006 125.806 325.333C125.942 325.66 126.129 325.951 126.356 326.189C126.394 326.228 126.432 326.265 126.471 326.301C127.147 324.723 128.766 324.206 130.205 324.069C137.094 323.393 143.823 327.369 150.733 327.069C150.246 324.98 149.544 322.971 149.147 320.856C147.389 311.465 151.774 301.241 149.085 292.196C148.548 290.386 147.651 288.606 146.237 287.813C145.652 287.52 145.039 287.319 144.413 287.214C142.667 286.823 139.192 285.15 137.504 285.821C136.881 286.071 136.635 286.797 136.118 287.237C135.334 287.858 134.293 288.087 133.643 288.906Z" fill="#39535C"/>
<path id="Path 1430_2" d="M222.882 287.237C222.365 286.797 222.119 286.071 221.496 285.821C219.808 285.15 216.333 286.823 214.587 287.214C213.961 287.319 213.348 287.52 212.763 287.813C211.349 288.606 210.452 290.386 209.915 292.196C207.226 301.241 211.611 311.465 209.853 320.856C209.456 322.971 208.754 324.98 208.267 327.069C215.177 327.369 221.906 323.393 228.795 324.069C230.234 324.206 231.853 324.723 232.529 326.301C232.568 326.265 232.606 326.228 232.644 326.189C232.871 325.951 233.058 325.66 233.194 325.333C233.331 325.006 233.414 324.648 233.439 324.281C233.464 323.914 233.431 323.544 233.341 323.192C233.251 322.841 233.106 322.515 232.914 322.234C232.695 321.987 232.493 321.716 232.312 321.425C232.128 320.988 232.037 320.5 232.045 320.007C231.536 309.893 229.58 299.973 226.267 290.711C226.066 290.039 225.756 289.424 225.357 288.906C224.707 288.087 223.666 287.858 222.882 287.237Z" fill="#39535C"/>
</g>
<path id="Vector_5" d="M173.576 371.964C176.969 371.964 179.719 368.551 179.719 364.342C179.719 360.133 176.969 356.721 173.576 356.721C170.183 356.721 167.433 360.133 167.433 364.342C167.433 368.551 170.183 371.964 173.576 371.964Z" fill="#FBBEBE"/>
<path id="Vector_6" d="M187.179 371.964C190.572 371.964 193.322 368.551 193.322 364.342C193.322 360.133 190.572 356.721 187.179 356.721C183.786 356.721 181.036 360.133 181.036 364.342C181.036 368.551 183.786 371.964 187.179 371.964Z" fill="#FBBEBE"/>
<path id="Vector_7" d="M225.099 381.516H140.701C139.716 381.514 138.771 381.028 138.074 380.164C137.378 379.299 136.986 378.128 136.985 376.905V313.384C136.986 312.162 137.378 310.99 138.074 310.126C138.771 309.261 139.716 308.775 140.701 308.774H225.099C226.085 308.775 227.029 309.261 227.726 310.126C228.423 310.99 228.815 312.162 228.816 313.384V376.905C228.815 378.128 228.423 379.299 227.726 380.164C227.029 381.028 226.085 381.514 225.099 381.516Z" fill="#86969C"/>
<path id="Ellipse 263" d="M182.696 348.195C184.054 348.195 185.155 346.83 185.155 345.145C185.155 343.46 184.054 342.094 182.696 342.094C181.338 342.094 180.237 343.46 180.237 345.145C180.237 346.83 181.338 348.195 182.696 348.195Z" fill="white"/>
<path id="Vector_8" d="M321 368.703H38V379.492H54.7391V382H304.267V379.492H321V368.703Z" fill="#F1F1F1"/>
<g id="Headphone">
<path id="Vector_9" d="M159.387 239.168C155.73 239.168 152.765 235.191 152.765 230.285V225.844C152.765 220.938 155.73 216.961 159.387 216.961L159.387 239.168Z" fill="#F2F2F2"/>
<path id="Vector_10" d="M201.653 216.961C205.311 216.961 208.275 220.938 208.275 225.844V230.285C208.275 235.191 205.311 239.168 201.653 239.168V216.961Z" fill="#F2F2F2"/>
<path id="Vector_11" d="M205.123 226.542H204.073C204.073 208.668 193.232 194.127 179.907 194.127C166.583 194.127 155.742 208.668 155.742 226.542H154.691C154.691 207.891 166.003 192.718 179.907 192.718C193.812 192.718 205.123 207.891 205.123 226.542Z" fill="#F2F2F2"/>
</g>
<g id="Smoke">
<path id="Smoke-1" d="M264.593 330.699C263.925 325.119 263.749 319.465 264.067 313.838L264.593 304.525C261.694 311.681 262.349 321.099 264.593 330.699Z" fill="#86969C"/>
<path id="Smoke-2" d="M266.066 317.013C266.387 320.342 266.472 323.701 266.319 327.049L266.066 332.592C267.461 328.333 267.146 322.727 266.066 317.013Z" fill="#86969C"/>
<path id="Smoke-3" d="M269.892 334.358C270.671 333.364 272.737 331.708 272.096 329.982C271.448 328.24 270.655 327.646 270.655 325.607C270.655 324.138 271.639 322.613 272.096 321.232C272.594 319.723 271.463 317.729 271.036 316.37" stroke="#86969C" stroke-width="3" stroke-linecap="round"/>
<path id="Smoke-4" d="M261.12 333.385C254.405 333.385 261.567 326.684 259.298 323.068C257.952 320.925 258.775 317.789 260.166 316.37C260.786 315.738 259.213 311.366 259.213 310.05" stroke="#86969C" stroke-width="3" stroke-linecap="round"/>
</g>
<g id="Sound">
<path id="Sound-1" d="M213.826 229.35H222.598" stroke="#86969C" stroke-width="3" stroke-linecap="round"/>
<path id="Sound-2" d="M140.978 228.378H148.988" stroke="#86969C" stroke-width="3" stroke-linecap="round"/>
<path id="Sound-3" d="M150.895 238.587C148.893 238.587 148.013 239.742 146.509 241.234C145.908 241.83 145.122 241.093 144.708 241.99C144.344 242.778 143.577 243.448 142.885 243.448" stroke="#86969C" stroke-width="3" stroke-linecap="round"/>
<path id="Sound-4" d="M212.682 220.599C213.355 220.117 214.196 219.102 214.759 218.385C215.593 217.321 215.741 218.655 216.877 218.655C218.819 218.655 219.367 216.463 221.073 215.738" stroke="#86969C" stroke-width="3" stroke-linecap="round"/>
<path id="Sound-5" d="M149.369 222.058C147.303 221.729 147.075 217.196 145.746 217.196C143.963 217.196 143.074 215.412 141.741 214.28" stroke="#86969C" stroke-width="3" stroke-linecap="round"/>
<path id="Sound-6" d="M212.301 237.128C213.463 238.61 214.652 238.937 215.818 240.423C216.333 241.08 216.447 242.354 217.259 242.476C218.007 242.588 217.844 244.065 218.403 244.421" stroke="#86969C" stroke-width="3" stroke-linecap="round"/>
</g>
</g>
<g id="Under Construction">
<path d="M125.216 95.28V74.4H130.976V95.6C130.976 96.4 131.376 96.8 132.176 96.8H140.016C140.816 96.8 141.216 96.4 141.216 95.6V74.4H146.976V95.28C146.976 99.76 144.736 102 140.256 102H131.936C127.456 102 125.216 99.76 125.216 95.28ZM152.907 102V80.88H164.587C168.907 80.88 171.067 83.04 171.067 87.36V102H165.547V86.96C165.547 86.1067 165.121 85.68 164.267 85.68H158.427V102H152.907ZM176.337 95.52V87.36C176.337 83.04 178.497 80.88 182.817 80.88H188.977V72.4H194.497V102H182.817C178.497 102 176.337 99.84 176.337 95.52ZM181.857 95.92C181.857 96.7733 182.284 97.2 183.137 97.2H188.977V85.68H183.137C182.284 85.68 181.857 86.1067 181.857 86.96V95.92ZM199.931 95.52V87.36C199.931 83.04 202.091 80.88 206.411 80.88H211.611C215.931 80.88 218.091 83.04 218.091 87.36V93.48H205.451V95.92C205.451 96.7733 205.878 97.2 206.731 97.2H217.291V100.2L214.891 102H206.411C202.091 102 199.931 99.84 199.931 95.52ZM205.451 89.24H212.571V86.96C212.571 86.1067 212.144 85.68 211.291 85.68H206.731C205.878 85.68 205.451 86.1067 205.451 86.96V89.24ZM223.372 102V83.6C224.359 81.7867 226.252 80.88 229.052 80.88H233.372L235.772 82.68V85.68H230.532C229.732 85.68 229.186 85.88 228.892 86.28V102H223.372ZM83.429 136.624V125.296C83.429 121.712 85.221 119.92 88.805 119.92H97.349L99.493 121.584V124.08H88.997C88.357 124.08 88.037 124.4 88.037 125.04V136.88C88.037 137.52 88.357 137.84 88.997 137.84H99.493V140.336L97.349 142H88.805C85.221 142 83.429 140.208 83.429 136.624ZM103.142 136.816V130.288C103.142 126.832 104.87 125.104 108.326 125.104H112.806C116.262 125.104 117.99 126.832 117.99 130.288V136.816C117.99 140.272 116.262 142 112.806 142H108.326C104.87 142 103.142 140.272 103.142 136.816ZM107.558 137.136C107.558 137.819 107.899 138.16 108.582 138.16H112.55C113.232 138.16 113.574 137.819 113.574 137.136V129.968C113.574 129.285 113.232 128.944 112.55 128.944H108.582C107.899 128.944 107.558 129.285 107.558 129.968V137.136ZM122.335 142V125.104H131.679C135.135 125.104 136.863 126.832 136.863 130.288V142H132.447V129.968C132.447 129.285 132.106 128.944 131.423 128.944H126.751V142H122.335ZM140.759 140.56V138.16H148.119C148.845 138.16 149.207 137.755 149.207 136.944C149.207 136.112 148.909 135.643 148.311 135.536L144.855 134.96C142.125 134.491 140.759 132.912 140.759 130.224C140.759 126.811 142.487 125.104 145.943 125.104H150.903L152.823 126.544V128.944H146.199C145.474 128.944 145.111 129.349 145.111 130.16C145.111 131.013 145.442 131.493 146.103 131.6L149.527 132.176C152.237 132.624 153.591 134.181 153.591 136.848C153.591 140.283 151.853 142 148.375 142H142.679L140.759 140.56ZM157.457 136.816V119.92H161.873V125.104H167.377V128.944H161.873V137.136C161.873 137.819 162.215 138.16 162.897 138.16H167.697V140.56L165.777 142H162.641C159.185 142 157.457 140.272 157.457 136.816ZM171.02 142V127.28C171.809 125.829 173.324 125.104 175.564 125.104H179.02L180.94 126.544V128.944H176.748C176.108 128.944 175.67 129.104 175.436 129.424V142H171.02ZM183.957 136.816V125.104H188.373V137.136C188.373 137.819 188.715 138.16 189.397 138.16H194.069V125.104H198.485V142H189.141C185.685 142 183.957 140.272 183.957 136.816ZM202.829 136.816V130.288C202.829 126.832 204.557 125.104 208.013 125.104H213.965L215.885 126.544V128.944H208.269C207.587 128.944 207.245 129.285 207.245 129.968V137.136C207.245 137.819 207.587 138.16 208.269 138.16H215.885V140.56L213.965 142H208.013C204.557 142 202.829 140.272 202.829 136.816ZM219.52 136.816V119.92H223.936V125.104H229.44V128.944H223.936V137.136C223.936 137.819 224.277 138.16 224.96 138.16H229.76V140.56L227.84 142H224.704C221.248 142 219.52 140.272 219.52 136.816ZM233.114 122.32V118H237.722V122.32H233.114ZM233.21 142V125.104H237.626V142H233.21ZM241.986 136.816V130.288C241.986 126.832 243.714 125.104 247.17 125.104H251.65C255.106 125.104 256.833 126.832 256.833 130.288V136.816C256.833 140.272 255.106 142 251.65 142H247.17C243.714 142 241.986 140.272 241.986 136.816ZM246.402 137.136C246.402 137.819 246.743 138.16 247.426 138.16H251.394C252.076 138.16 252.418 137.819 252.418 137.136V129.968C252.418 129.285 252.076 128.944 251.394 128.944H247.426C246.743 128.944 246.402 129.285 246.402 129.968V137.136ZM261.179 142V125.104H270.523C273.979 125.104 275.707 126.832 275.707 130.288V142H271.291V129.968C271.291 129.285 270.95 128.944 270.267 128.944H265.595V142H261.179Z" fill="#1E1E1E"/>
</g>
</g>
<defs>
<clipPath id="clip0_14_105">
<rect width="283" height="193" fill="white" transform="translate(38 189)"/>
</clipPath>
</defs>
</svg>
